<?xml version="1.0" standalone="no"?>
<!DOCTYPE svg PUBLIC "-//W3C//DTD SVG 20010904//EN"
 "http://www.w3.org/TR/2001/REC-SVG-20010904/DTD/svg10.dtd">
<svg version="1.0" xmlns="http://www.w3.org/2000/svg"
 width="248.000000pt" height="279.000000pt" viewBox="0 0 248.000000 279.000000"
 preserveAspectRatio="xMidYMid meet">

<g transform="translate(0.000000,279.000000) scale(0.100000,-0.100000)"
fill="#000000" stroke="none">
<path d="M1185 2641 c-3 -5 -2 -12 3 -15 5 -3 9 1 9 9 0 17 -3 19 -12 6z"/>
<path d="M1018 2603 c7 -3 16 -2 19 1 4 3 -2 6 -13 5 -11 0 -14 -3 -6 -6z"/>
<path d="M1405 2580 c-3 -6 1 -7 9 -4 18 7 21 14 7 14 -6 0 -13 -4 -16 -10z"/>
<path d="M1411 2544 c0 -11 3 -14 6 -6 3 7 2 16 -1 19 -3 4 -6 -2 -5 -13z"/>
<path d="M1140 2540 c-9 -6 -10 -10 -3 -10 6 0 15 5 18 10 8 12 4 12 -15 0z"/>
<path d="M1524 2529 c-4 -6 -19 -9 -36 -5 -16 3 -39 0 -51 -7 -26 -14 -57 -46
-57 -59 0 -4 -6 -8 -14 -8 -18 0 -26 -34 -16 -70 5 -16 6 -38 3 -50 -3 -11 -1
-20 5 -20 5 0 15 -14 21 -31 9 -27 7 -36 -22 -79 -29 -44 -36 -49 -70 -49 -40
-1 -102 -35 -92 -52 8 -13 -14 -51 -26 -44 -5 4 -16 21 -24 38 -9 18 -22 43
-29 57 -34 60 -48 104 -36 108 7 3 20 12 30 21 9 9 25 21 36 27 28 16 42 62
24 75 -10 7 -11 12 -4 15 19 8 2 57 -29 86 -17 15 -34 25 -37 23 -4 -3 -21 2
-38 10 -28 14 -33 14 -67 -5 -21 -12 -44 -28 -52 -36 -8 -8 -23 -19 -34 -25
-13 -7 -18 -16 -14 -29 3 -10 1 -21 -4 -25 -14 -8 27 -85 45 -85 8 0 14 -5 14
-11 0 -5 20 -19 45 -30 43 -19 45 -22 45 -62 0 -23 9 -61 20 -85 11 -24 19
-46 18 -50 -1 -4 2 -19 6 -33 5 -18 2 -37 -9 -59 -15 -30 -15 -33 1 -51 15
-17 16 -28 4 -129 -14 -127 -8 -167 26 -182 13 -6 27 -20 30 -32 19 -62 99
-159 227 -276 85 -77 144 -140 158 -167 26 -50 63 -88 78 -78 21 12 12 66 -13
86 -13 10 -26 29 -30 43 -3 13 -18 29 -35 36 -17 7 -34 24 -39 39 -6 16 -24
44 -42 64 -37 43 -34 46 14 15 19 -13 63 -39 97 -58 35 -19 79 -52 98 -73 40
-43 86 -71 101 -62 6 3 10 19 10 34 0 21 -12 37 -51 69 -29 23 -61 42 -73 42
-26 0 -58 22 -118 82 -29 28 -67 54 -100 66 l-53 20 -24 82 c-22 79 -23 84 -6
96 16 12 16 17 4 46 -7 17 -32 54 -56 80 -24 27 -43 54 -43 61 0 41 52 147 72
147 4 0 14 -12 22 -27 l15 -28 1 28 c0 15 4 27 10 27 19 0 28 63 13 88 -13 21
-11 29 23 93 40 75 55 89 79 69 11 -9 21 -8 47 7 18 10 38 24 44 32 6 8 16 11
22 7 6 -3 14 0 19 7 4 7 16 16 25 20 11 4 15 13 11 26 -3 12 0 23 8 26 14 5
17 66 6 110 -3 11 -6 26 -6 33 -1 9 -8 11 -21 7 -15 -5 -20 -2 -20 11 0 14 -3
15 -12 6 -17 -17 -38 -15 -38 3 0 17 -26 20 -36 4z"/>
<path d="M1700 2511 c0 -6 4 -13 10 -16 6 -3 7 1 4 9 -7 18 -14 21 -14 7z"/>
<path d="M927 2259 c7 -7 15 -10 18 -7 3 3 -2 9 -12 12 -14 6 -15 5 -6 -5z"/>
<path d="M1015 2099 c-4 -6 -5 -12 -2 -15 2 -3 7 2 10 11 7 17 1 20 -8 4z"/>
<path d="M1544 2058 c-4 -7 -4 -10 1 -6 4 4 15 2 24 -5 14 -11 14 -10 2 6 -16
20 -18 21 -27 5z"/>
<path d="M1290 1919 c-15 -26 -11 -29 53 -49 72 -23 132 -63 163 -109 40 -62
54 -228 28 -337 -7 -29 53 -84 115 -105 l50 -16 17 49 c49 148 -6 354 -120
454 -77 67 -226 136 -226 104 0 -18 -29 -11 -40 10 -14 26 -26 25 -40 -1z"/>
<path d="M1011 1883 c-165 -85 -239 -233 -178 -353 40 -80 133 -91 205 -25
l37 33 -45 40 -45 40 0 68 c1 73 15 109 62 150 17 15 24 29 21 48 l-3 27 -54
-28z"/>
<path d="M689 1813 c-13 -16 -12 -17 4 -4 9 7 17 15 17 17 0 8 -8 3 -21 -13z"/>
<path d="M1875 1749 c-4 -6 -5 -12 -2 -15 2 -3 7 2 10 11 7 17 1 20 -8 4z"/>
<path d="M755 1709 c-4 -6 -5 -12 -2 -15 2 -3 7 2 10 11 7 17 1 20 -8 4z"/>
<path d="M580 1671 c0 -6 4 -13 10 -16 6 -3 7 1 4 9 -7 18 -14 21 -14 7z"/>
<path d="M1801 1653 c7 -12 15 -20 18 -17 3 2 -3 12 -13 22 -17 16 -18 16 -5
-5z"/>
<path d="M1946 1657 c3 -10 9 -15 12 -12 3 3 0 11 -7 18 -10 9 -11 8 -5 -6z"/>
<path d="M660 1590 c-9 -6 -10 -10 -3 -10 6 0 15 5 18 10 8 12 4 12 -15 0z"/>
<path d="M606 1511 c-3 -5 2 -15 12 -22 15 -12 16 -12 5 2 -7 9 -10 19 -6 22
3 4 4 7 0 7 -3 0 -8 -4 -11 -9z"/>
<path d="M1895 1510 c3 -5 8 -10 11 -10 2 0 4 5 4 10 0 6 -5 10 -11 10 -5 0
-7 -4 -4 -10z"/>
<path d="M2043 1488 c1 -15 6 -23 11 -18 4 4 4 16 -2 26 -9 16 -10 14 -9 -8z"/>
<path d="M1500 1280 c0 -6 15 -20 34 -31 19 -11 39 -33 45 -50 11 -31 20 -36
39 -17 20 20 13 32 -47 71 -61 39 -71 43 -71 27z"/>
<path d="M922 1204 c-88 -45 -31 -138 84 -138 41 0 63 7 104 32 28 18 54 32
57 32 3 0 35 -15 71 -32 78 -39 159 -44 234 -15 46 18 46 18 32 45 -8 15 -22
38 -32 50 l-18 24 -49 -31 c-68 -43 -119 -42 -227 6 -100 44 -202 55 -256 27z"/>
<path d="M745 1146 c10 -14 19 -26 22 -26 7 0 -17 39 -28 46 -6 3 -3 -5 6 -20z"/>
<path d="M614 1088 c-4 -7 -4 -10 1 -6 4 4 14 0 22 -10 13 -15 13 -15 3 6 -12
25 -16 27 -26 10z"/>
<path d="M498 1053 c12 -2 32 -2 45 0 12 2 2 4 -23 4 -25 0 -35 -2 -22 -4z"/>
<path d="M1185 999 c-11 -7 -23 -17 -27 -23 -10 -14 -10 -178 0 -193 12 -19
63 -34 94 -28 32 7 48 31 48 69 0 39 -36 35 -43 -4 -5 -24 -12 -30 -32 -30
l-26 0 3 88 c3 85 3 87 28 87 18 0 26 -6 28 -22 5 -32 42 -32 42 0 0 13 -6 31
-13 40 -15 22 -76 31 -102 16z"/>
<path d="M1557 990 c-26 -20 -27 -25 -27 -109 0 -103 14 -126 81 -126 61 0 71
18 73 124 1 102 -7 118 -65 127 -26 4 -41 0 -62 -16z m81 -90 c4 -88 -2 -110
-33 -110 -25 0 -25 1 -25 83 0 46 3 87 7 91 4 4 16 6 28 4 17 -3 20 -11 23
-68z"/>
<path d="M510 935 c0 -58 3 -66 25 -81 16 -11 34 -14 55 -9 l30 7 0 -46 c0
-42 2 -46 25 -46 l25 0 0 120 0 120 -25 0 c-22 0 -24 -4 -27 -57 -3 -55 -4
-58 -30 -61 -28 -3 -28 -3 -28 57 0 58 -1 61 -25 61 -24 0 -25 -2 -25 -65z"/>
<path d="M710 880 l0 -120 24 0 c21 0 28 9 45 58 38 102 40 103 40 20 1 -76 2
-78 26 -78 l25 0 0 120 0 120 -29 0 c-27 0 -31 -6 -58 -72 l-28 -73 -3 73 c-3
64 -5 72 -22 72 -19 0 -20 -8 -20 -120z"/>
<path d="M910 880 l0 -120 24 0 c21 0 24 4 20 26 -8 42 4 64 35 64 39 0 61 20
68 62 4 26 1 45 -11 63 -15 22 -23 25 -76 25 l-60 0 0 -120z m95 45 c0 -31 -4
-41 -19 -43 -22 -5 -36 14 -36 49 0 32 8 41 35 37 16 -2 20 -10 20 -43z"/>
<path d="M1340 880 c0 -113 1 -120 20 -120 19 0 20 7 20 105 l0 105 35 0 35 0
0 -106 c0 -104 0 -105 23 -102 21 3 22 7 25 121 l3 117 -81 0 -80 0 0 -120z"/>
<path d="M1720 880 l0 -120 25 0 c23 0 25 4 25 45 0 43 1 45 30 45 42 0 70 31
70 79 0 56 -19 71 -91 71 l-59 0 0 -120z m98 48 c-2 -36 -7 -44 -25 -46 -21
-3 -23 1 -23 42 0 43 2 46 26 46 23 0 25 -3 22 -42z"/>
<path d="M1880 985 c0 -10 10 -15 30 -15 l30 0 0 -106 c0 -103 1 -105 22 -102
21 3 21 7 20 106 l-1 102 30 0 c19 0 29 5 29 15 0 12 -16 15 -80 15 -64 0 -80
-3 -80 -15z"/>
<path d="M995 499 c-4 -6 -5 -12 -2 -15 2 -3 7 2 10 11 7 17 1 20 -8 4z"/>
<path d="M1376 493 c-6 -14 -5 -15 5 -6 7 7 10 15 7 18 -3 3 -9 -2 -12 -12z"/>
<path d="M1326 387 c3 -10 9 -15 12 -12 3 3 0 11 -7 18 -10 9 -11 8 -5 -6z"/>
<path d="M1289 63 c-13 -16 -12 -17 4 -4 16 13 21 21 13 21 -2 0 -10 -8 -17
-17z"/>
</g>
</svg>
